<?xml version="1.0" encoding="utf-8"?>
<!-- Generator: Adobe Illustrator 18.0.0, SVG Export Plug-In . SVG Version: 6.00 Build 0)  -->
<!DOCTYPE svg PUBLIC "-//W3C//DTD SVG 1.1//EN" "http://www.w3.org/Graphics/SVG/1.1/DTD/svg11.dtd" [
	<!ENTITY ns_extend "http://ns.adobe.com/Extensibility/1.0/">
	<!ENTITY ns_ai "http://ns.adobe.com/AdobeIllustrator/10.0/">
	<!ENTITY ns_graphs "http://ns.adobe.com/Graphs/1.0/">
	<!ENTITY ns_vars "http://ns.adobe.com/Variables/1.0/">
	<!ENTITY ns_imrep "http://ns.adobe.com/ImageReplacement/1.0/">
	<!ENTITY ns_sfw "http://ns.adobe.com/SaveForWeb/1.0/">
	<!ENTITY ns_custom "http://ns.adobe.com/GenericCustomNamespace/1.0/">
	<!ENTITY ns_adobe_xpath "http://ns.adobe.com/XPath/1.0/">
]>
<svg version="1.1" id="icons" xmlns:x="&ns_extend;" xmlns:i="&ns_ai;" xmlns:graph="&ns_graphs;"
	 xmlns="http://www.w3.org/2000/svg" xmlns:xlink="http://www.w3.org/1999/xlink" x="0px" y="0px" viewBox="0 0 24 24"
	 enable-background="new 0 0 24 24" xml:space="preserve">
<metadata>
	<sfw  xmlns="&ns_sfw;">
		<slices></slices>
		<sliceSourceBounds  height="464" width="332.001" x="20.999" y="-419" bottomLeftOrigin="true"></sliceSourceBounds>
		<optimizationSettings>
			<targetSettings  fileFormat="PNG24Format" targetSettingsID="0">
				<PNG24Format  transparency="true" filtered="false" noMatteColor="false" matteColor="#FFFFFF" interlaced="false">
					</PNG24Format>
			</targetSettings>
		</optimizationSettings>
	</sfw>
</metadata>
<path fill="#5B5B5B" d="M19.633,4.367C17.463,2.196,14.574,1,11.5,1C5.159,1,0,6.159,0,12.5c0,3.074,1.196,5.963,3.367,8.133
	C5.537,22.804,8.426,24,11.5,24C17.841,24,23,18.841,23,12.5C23,9.426,21.804,6.537,19.633,4.367z M11.5,23
	c-2.807,0-5.444-1.092-7.426-3.074S1,15.307,1,12.5C1,6.71,5.71,2,11.5,2c2.807,0,5.444,1.092,7.426,3.074S22,9.693,22,12.5
	C22,18.29,17.29,23,11.5,23z"/>
<path fill="#5B5B5B" d="M11.5,17c-0.276,0-0.5,0.224-0.5,0.5v1c0,0.276,0.224,0.5,0.5,0.5s0.5-0.224,0.5-0.5v-1
	C12,17.224,11.776,17,11.5,17z"/>
<path fill="#5B5B5B" d="M11.5,6C11.224,6,11,6.224,11,6.5v9c0,0.276,0.224,0.5,0.5,0.5s0.5-0.224,0.5-0.5v-9
	C12,6.224,11.776,6,11.5,6z"/>
</svg>
